<?xml version="1.0" encoding="utf-8"?>
<!-- Generator: Adobe Illustrator 18.0.0, SVG Export Plug-In . SVG Version: 6.00 Build 0)  -->
<!DOCTYPE svg PUBLIC "-//W3C//DTD SVG 1.0//EN" "http://www.w3.org/TR/2001/REC-SVG-20010904/DTD/svg10.dtd">
<svg version="1.0" id="Слой_1" xmlns="http://www.w3.org/2000/svg" xmlns:xlink="http://www.w3.org/1999/xlink" x="0px" y="0px"
	 viewBox="0 0 52 52" enable-background="new 0 0 52 52" xml:space="preserve">
<g>
	<path fill="#0BDBAC" d="M26.4,2.4c-13.2,0-24,10.8-24,24c0,0.4,0.4,0.8,0.8,0.8c0.4,0,0.8-0.4,0.8-0.8C4,14,14.1,4,26.4,4
		c12.4,0,22.4,10,22.4,22.4c0,0.4,0.4,0.8,0.8,0.8c0.4,0,0.8-0.4,0.8-0.8C50.4,13.1,39.7,2.4,26.4,2.4L26.4,2.4z M26.4,2.4"/>
	<path fill="#0BDBAC" d="M26.4,13.6c-3.6,0-7,1.4-9.6,4c-2.6,2.6-4,6-4,9.6c0,3.6,1.4,7,4,9.6c2.6,2.6,6,4,9.6,4c3.6,0,7-1.4,9.6-4
		c2.6-2.6,4-6,4-9.6c0-3.6-1.4-7-4-9.6C33.5,15,30.1,13.6,26.4,13.6L26.4,13.6z M34.9,35.6c-2.3,2.3-5.3,3.5-8.5,3.5
		c-3.2,0-6.2-1.3-8.5-3.5c-2.3-2.3-3.5-5.3-3.5-8.5c0-3.2,1.3-6.2,3.5-8.5c2.3-2.3,5.3-3.5,8.5-3.5c2.9,0,5.7,1.1,7.9,3l-8.5,8.5
		c-0.3,0.3-0.3,0.8,0,1.1c0.2,0.2,0.4,0.2,0.6,0.2c0.2,0,0.4-0.1,0.6-0.2l8.5-8.5c1.9,2.2,3,5,3,7.9C38.4,30.4,37.2,33.4,34.9,35.6
		L34.9,35.6z M34.9,35.6"/>
</g>
</svg>
