<?xml version="1.0" encoding="utf-8"?>
<!-- Generator: Adobe Illustrator 18.0.0, SVG Export Plug-In . SVG Version: 6.00 Build 0)  -->
<!DOCTYPE svg PUBLIC "-//W3C//DTD SVG 1.0//EN" "http://www.w3.org/TR/2001/REC-SVG-20010904/DTD/svg10.dtd">
<svg version="1.0" id="Слой_1" xmlns="http://www.w3.org/2000/svg" xmlns:xlink="http://www.w3.org/1999/xlink" x="0px" y="0px"
	 viewBox="0 0 52 52" enable-background="new 0 0 52 52" xml:space="preserve">
<g>
	<path fill="#FFAA00" d="M26.4,2.4c-13.2,0-24,10.8-24,24c0,0.4,0.4,0.8,0.8,0.8c0.4,0,0.8-0.4,0.8-0.8C4,14,14.1,4,26.4,4
		s22.4,10,22.4,22.4c0,0.4,0.4,0.8,0.8,0.8c0.4,0,0.8-0.4,0.8-0.8C50.4,13.1,39.7,2.4,26.4,2.4z"/>
	<path fill="#FFAA00" d="M22.4,18.3c0-2.7-2.2-4.8-4.8-4.8s-4.8,2.2-4.8,4.8s2.2,4.8,4.8,4.8S22.4,21,22.4,18.3z M14.6,18.3
		c0-1.7,1.4-3,3-3s3,1.4,3,3s-1.4,3-3,3S14.6,20,14.6,18.3z"/>
	<path fill="#FFAA00" d="M36,19.4l-8,8.1l-4.1-4.1L10,35.4c-0.4,0.3-0.4,0.9-0.1,1.3c0.2,0.2,0.4,0.3,0.7,0.3c0.2,0,0.4-0.1,0.6-0.2
		l12.6-10.8l6.3,6.3c0.4,0.4,0.9,0.4,1.3,0c0.4-0.4,0.4-0.9,0-1.3l-2.1-2.1l6.8-6.9l5.1,4.4c0.4,0.3,0.9,0.3,1.3-0.1
		c0.3-0.4,0.3-0.9-0.1-1.3L36,19.4z"/>
</g>
</svg>
