<?xml version="1.0" encoding="iso-8859-1"?>
<!-- Generator: Adobe Illustrator 18.0.0, SVG Export Plug-In . SVG Version: 6.00 Build 0)  -->
<!DOCTYPE svg PUBLIC "-//W3C//DTD SVG 1.1//EN" "http://www.w3.org/Graphics/SVG/1.1/DTD/svg11.dtd">
<svg version="1.1" id="Capa_1" xmlns="http://www.w3.org/2000/svg" xmlns:xlink="http://www.w3.org/1999/xlink" x="0px" y="0px"
	 viewBox="0 0 297 297" style="enable-background:new 0 0 297 297;" xml:space="preserve">
<g>
	<path d="M148.5,101.331c25.373,0,46.81-22.32,46.81-48.74c0-25.166-20.561-44.879-46.81-44.879s-46.81,19.714-46.81,44.879
		C101.69,79.011,123.127,101.331,148.5,101.331z"/>
	<path d="M29.796,224.548l34.315,2.939l25.542-55.189c1.485-3.208,5.002-4.959,8.455-4.192c3.453,0.76,5.913,3.82,5.913,7.356
		v27.128l83.165-81.873c-13.678-3.931-28.293-5.998-38.687-5.998c-20.662,0-58.012,8.161-71.499,22.917
		c-14.451,15.812-41.014,59.399-57.276,86.981C23.036,224.177,26.418,224.139,29.796,224.548z"/>
	<path d="M288.551,245.577c-5.371-4.741-12.529-6.956-19.632-6.061l-82.027,10.253l8.648,39.519h76.478
		c13.775,0,24.982-11.208,24.982-24.983C297,257.143,293.921,250.317,288.551,245.577z"/>
	<path d="M24.985,239.323c-6.054,0-11.947,2.203-16.536,6.255C3.079,250.317,0,257.143,0,264.305
		c0,13.776,11.208,24.983,24.982,24.983h155.136l-8.195-37.448C171.924,251.841,26.014,239.323,24.985,239.323z"/>
	<path d="M104.022,230.905l58.073,4.974h14.456l16.427-2.053v-58.364c0-3.536,2.46-6.596,5.913-7.356
		c3.453-0.765,6.97,0.985,8.455,4.192l26.132,56.465l33.571-4.196c3.429-0.427,6.862-0.397,10.224,0.049
		c-16.264-27.583-42.828-71.172-57.276-86.98c-3.968-4.342-10.011-8.107-17.078-11.267l-98.899,97.362V230.905z"/>
</g>
<g>
</g>
<g>
</g>
<g>
</g>
<g>
</g>
<g>
</g>
<g>
</g>
<g>
</g>
<g>
</g>
<g>
</g>
<g>
</g>
<g>
</g>
<g>
</g>
<g>
</g>
<g>
</g>
<g>
</g>
</svg>
